<?xml version="1.0" encoding="UTF-8"?>
<svg id="Capa_1" data-name="Capa 1" xmlns="http://www.w3.org/2000/svg" viewBox="0 0 55 55">
  <path d="M27.5,4.04C14.55,4.04,4.04,14.55,4.04,27.5s10.5,23.46,23.46,23.46,23.46-10.5,23.46-23.46S40.45,4.04,27.5,4.04ZM26.77,41c-1.75,0-3.1-1.2-3.1-3.1s1.35-3.1,3.1-3.1,3.1,1.24,3.1,3.1-1.39,3.1-3.1,3.1ZM32.87,27.06c-2.03,1.12-3.12,1.85-3.55,3.26-.32,1.06-1.26,1.81-2.36,1.81h-.06c-1.44,0-2.6-1.17-2.56-2.6.05-1.61.39-2.79,2.06-4.08,1.93-1.5,3.98-2.01,3.98-4.09,0-1.2-.91-2.37-2.88-2.37-1.65,0-2.75.64-3.27,1.82-.49,1.11-1.55,1.86-2.77,1.86-2.25,0-3.79-2.44-2.66-4.38,1.5-2.58,4.51-4.3,9.06-4.3,5.08,0,8.73,2.86,8.72,7.1,0,2.5-1.52,4.75-3.71,5.96Z"/>
</svg>