<?xml version="1.0" encoding="UTF-8"?>
<svg id="Waves" xmlns="http://www.w3.org/2000/svg" viewBox="0 0 800 800">
  <path d="M651.23,295.93H148.77c-43.1,0-78.05,34.94-78.05,78.05v302.85c0,43.1,34.94,78.05,78.05,78.05h502.46c43.1,0,78.05-34.94,78.05-78.05v-302.85c0-43.1-34.94-78.05-78.05-78.05ZM421.5,512.25c0,13.49-10.93,24.42-24.42,24.42h-241.95c-13.49,0-24.42-10.93-24.42-24.42v-131.9c0-13.49,10.93-24.42,24.42-24.42h241.95c13.49,0,24.42,10.93,24.42,24.42v131.9ZM514.78,694.88c-22.63,0-40.97-18.34-40.97-40.97s18.34-40.97,40.97-40.97,40.97,18.34,40.97,40.97-18.34,40.97-40.97,40.97ZM628.3,694.88c-22.63,0-40.97-18.34-40.97-40.97s18.34-40.97,40.97-40.97,40.97,18.34,40.97,40.97-18.34,40.97-40.97,40.97Z"/>
  <g>
    <path d="M509.84,230.14c11.33-10.3,11.67-28.84-2.4-39.82-29.86-22.99-67.28-36.38-107.44-36.38s-77.58,13.38-107.44,36.38c-14.07,10.99-13.73,29.53-2.4,39.82,11.33,9.95,24.71,5.49,38.44-4.12,19.91-14.42,44.62-21.97,71.4-21.97s51.49,7.55,71.4,21.97c13.73,9.61,27.12,14.07,38.44,4.12Z"/>
    <path d="M587.07,153.94c11.67-9.95,11.67-27.12-1.72-39.13-49.43-44.96-114.99-69.68-185.36-69.68s-135.93,24.72-185.36,69.68c-13.39,12.01-13.39,29.18-1.72,39.13,11.33,9.61,25.4,6.86,38.1-4.46,40.16-35.02,91.99-54.24,148.97-54.24s108.81,19.22,148.97,54.24c12.7,11.33,26.77,14.07,38.1,4.46Z"/>
  </g>
</svg>