<?xml version="1.0" encoding="UTF-8"?>
<svg id="Capa_1" data-name="Capa 1" xmlns="http://www.w3.org/2000/svg" viewBox="0 0 55 55">
  <path d="M26.31,49.33c-2.83,0-5.02-1.95-5.02-5.02s2.18-5.02,5.02-5.02,5.02,2.01,5.02,5.02-2.24,5.02-5.02,5.02ZM36.19,26.79c-3.29,1.81-5.04,2.99-5.74,5.27-.52,1.71-2.03,2.93-3.82,2.93h-.1c-2.32,0-4.21-1.9-4.14-4.2.08-2.61.64-4.51,3.33-6.6,3.13-2.42,6.43-3.25,6.43-6.61,0-1.95-1.48-3.84-4.66-3.84-2.67,0-4.45,1.03-5.29,2.95-.78,1.8-2.51,3.01-4.47,3.01h0c-3.64,0-6.13-3.94-4.3-7.09,2.42-4.17,7.29-6.96,14.66-6.96,8.22,0,14.12,4.62,14.1,11.49-.01,4.04-2.46,7.69-6,9.64Z"/>
</svg>