<?xml version="1.0" encoding="UTF-8"?>
<svg id="Capa_1" data-name="Capa 1" xmlns="http://www.w3.org/2000/svg" viewBox="0 0 55 55">
  <path d="M40.44,24.15v19.93c0,4.37-3.54,7.91-7.91,7.91H10.91c-4.36,0-7.9-3.54-7.9-7.91v-21.62c0-4.36,3.54-7.9,7.9-7.9h19.94l-9.86,9.86c-1.28,1.28-1.98,2.98-1.98,4.79s.7,3.51,1.98,4.79,2.99,1.99,4.8,1.99,3.51-.71,4.79-1.99l9.86-9.85Z"/>
  <path d="M51.99,7.99v21.5c0,2.09-1.69,3.78-3.78,3.78s-3.78-1.69-3.78-3.78v-13.57l-4.31,4.31-11.66,11.65c-.74.74-1.7,1.11-2.67,1.11s-1.94-.37-2.68-1.11c-1.47-1.47-1.47-3.87,0-5.34l15.97-15.97h-13.58c-2.08,0-3.78-1.69-3.78-3.78s1.7-3.78,3.78-3.78h21.51c2.75,0,4.98,2.23,4.98,4.98Z"/>
</svg>