<?xml version="1.0" encoding="UTF-8"?>
<svg id="Capa_1" data-name="Capa 1" xmlns="http://www.w3.org/2000/svg" viewBox="0 0 55 55">
  <rect x="25.07" y="2.26" width="4.87" height="17.15" rx="2.43" ry="2.43"/>
  <rect x="28.19" y="11.15" width="17.15" height="4.87" rx="2.43" ry="2.43" transform="translate(5.34 37) rotate(-56.96)"/>
  <rect x="34.36" y="18.25" width="17.15" height="4.87" rx="2.43" ry="2.43" transform="translate(-4.72 20.06) rotate(-24.96)"/>
  <rect x="41.91" y="21.8" width="4.87" height="17.15" rx="2.43" ry="2.43" transform="translate(7.8 69.78) rotate(-81.57)"/>
  <rect x="37.91" y="30.45" width="4.87" height="17.15" rx="2.43" ry="2.43" transform="translate(-15.58 43.85) rotate(-48.98)"/>
  <rect x="29.98" y="35.58" width="4.87" height="17.15" rx="2.43" ry="2.43" transform="translate(-11.36 11.22) rotate(-16.76)"/>
  <rect x="14.01" y="41.73" width="17.15" height="4.87" rx="2.43" ry="2.43" transform="translate(-26.21 53.05) rotate(-73.24)"/>
  <rect x="6.08" y="36.59" width="17.15" height="4.87" rx="2.43" ry="2.43" transform="translate(-22.02 19.2) rotate(-41.02)"/>
  <rect x="2.09" y="27.94" width="17.15" height="4.87" rx="2.43" ry="2.43" transform="translate(-4.34 1.89) rotate(-8.43)"/>
  <rect x="9.63" y="12.11" width="4.87" height="17.15" rx="2.43" ry="2.43" transform="translate(-11.78 22.89) rotate(-65.04)"/>
  <rect x="15.8" y="5" width="4.87" height="17.15" rx="2.43" ry="2.43" transform="translate(-4.46 12.14) rotate(-33.04)"/>
  <rect x="25.07" y="2.26" width="4.87" height="17.15" rx="2.43" ry="2.43"/>
</svg>