<?xml version="1.0" encoding="UTF-8"?>
<svg id="Capa_1" data-name="Capa 1" xmlns="http://www.w3.org/2000/svg" viewBox="0 0 55 55">
  <path d="M46.39,32.83v12.84c0,4.36-3.54,7.9-7.9,7.9H14.3c-4.37,0-7.9-3.54-7.9-7.9v-12.84c0-4.37,3.53-7.91,7.9-7.91h5.93v5.56c0,1.64.64,3.19,1.81,4.35,1.16,1.17,2.71,1.81,4.35,1.81s3.2-.64,4.36-1.81c1.16-1.16,1.8-2.71,1.8-4.35v-5.56h5.94c4.36,0,7.9,3.54,7.9,7.91Z"/>
  <path d="M42.04,19.63c-.61.62-1.42.93-2.23.93s-1.62-.31-2.23-.93l-8.03-8.02v18.87c0,.87-.35,1.66-.92,2.23-.57.57-1.36.93-2.24.93s-1.66-.36-2.23-.93c-.57-.57-.93-1.36-.93-2.23V11.61l-8.02,8.02c-.62.62-1.43.93-2.23.93s-1.62-.31-2.24-.93c-1.23-1.23-1.23-3.23,0-4.47L23.45,2.45c.81-.81,1.88-1.21,2.94-1.21s2.13.4,2.94,1.21l12.71,12.71c1.24,1.24,1.24,3.24,0,4.47Z"/>
</svg>