<?xml version="1.0" encoding="UTF-8"?>
<svg id="Capa_1" data-name="Capa 1" xmlns="http://www.w3.org/2000/svg" viewBox="0 0 55 55">
  <path d="M32.27,6.3h0c0-1.31-1.06-2.38-2.38-2.38h-4.78c-1.31,0-2.38,1.06-2.38,2.38h0c0,.26-.21.47-.47.47h-10.49c-1.07,0-1.94.87-1.94,1.94h0c0,1.07.87,1.94,1.94,1.94h31.46c1.07,0,1.94-.87,1.94-1.94h0c0-1.07-.87-1.94-1.94-1.94h-10.49c-.26,0-.47-.21-.47-.47Z"/>
  <path d="M42.32,13.31H12.68c-1.52,0-2.71,1.32-2.56,2.84l3.38,32.63c.14,1.31,1.24,2.31,2.56,2.31h22.87c1.32,0,2.42-1,2.56-2.31l3.38-32.63c.16-1.52-1.03-2.84-2.56-2.84ZM21.81,44.33c-.22.25-.56.4-.94.4h0c-.7,0-1.31-.49-1.39-1.12l-2.83-22.75c-.04-.3.05-.58.25-.81.22-.25.56-.4.94-.4h0c.7,0,1.31.49,1.38,1.12l2.83,22.75c.04.3-.05.58-.25.81ZM28.8,43.41c0,.67-.55,1.22-1.22,1.22h-.15c-.67,0-1.22-.55-1.22-1.22v-22.43c0-.67.55-1.22,1.22-1.22h.15c.67,0,1.22.55,1.22,1.22v22.43ZM38.34,20.87l-2.83,22.75c-.08.63-.69,1.12-1.39,1.12h0c-.37,0-.71-.14-.94-.4-.2-.22-.29-.51-.25-.81l2.83-22.75c.08-.62.68-1.12,1.38-1.12h0c.37,0,.71.14.94.4.2.22.29.51.25.81Z"/>
</svg>