<?xml version="1.0" encoding="UTF-8"?>
<svg id="Capa_1" data-name="Capa 1" xmlns="http://www.w3.org/2000/svg" viewBox="0 0 55 55">
  <defs>
    <style>
      .cls-1 {
        fill: none;
      }

      .cls-2 {
        fill: #ff561d;
      }

      .cls-3 {
        fill: #fff;
      }
    </style>
  </defs>
  <g>
    <path class="cls-2" d="M50.07,28.17c-.36,5.16-2.56,9.76-5.91,13.2-.65.67-1.74.63-2.35-.07l-12.22-14.05c-.3-.34-.45-.79-.42-1.25l1.3-18.58c.07-.93.92-1.62,1.85-1.47,10.7,1.63,18.52,11.24,17.75,22.23Z"/>
    <path class="cls-3" d="M38.57,42.67c.61.7.5,1.79-.25,2.34-3.87,2.84-8.73,4.38-13.89,4.02-11.58-.81-20.3-10.84-19.49-22.41.4-5.79,3.12-10.86,7.17-14.39,3.65-3.17,8.38-5.09,13.51-5.15.94-.01,1.69.78,1.62,1.72l-1.26,18.06c-.05.79.2,1.56.72,2.16l11.87,13.66Z"/>
  </g>
  <line class="cls-1" x1="10.58" y1="13.18" x2="8.43" y2="11.03"/>
</svg>