<?xml version="1.0" encoding="UTF-8"?>
<svg id="Capa_1" data-name="Capa 1" xmlns="http://www.w3.org/2000/svg" viewBox="0 0 55 55">
  <defs>
    <style>
      .cls-1 {
        fill: #ff854a;
      }

      .cls-2 {
        fill: #1b1b19;
      }
    </style>
  </defs>
  <path class="cls-2" d="M47.47,31.1c-.81,12.22-12.22,21.28-24.31,19.28-.06,0-.11-.02-.17-.03-7.2-1.21-13.15-6.09-15.87-12.64-1.03-2.48-1.6-5.21-1.6-8.06,0-11.6,9.4-21,21-21,.73,0,1.45.04,2.17.11.91.1,1.55.97,1.38,1.87l-2.46,13.79c-.41,2.31,1.88,4.16,4.05,3.27l12.8-5.22c.87-.35,1.86.11,2.14,1,.73,2.38,1.05,4.95.87,7.62Z"/>
  <path class="cls-1" d="M48.48,17.75l-14.92,6.09c-1.26.51-2.58-.56-2.35-1.9l2.85-16c.16-.93,1.09-1.52,2-1.27,5.81,1.58,10.61,5.59,13.25,10.87.42.83.03,1.85-.83,2.2Z"/>
</svg>