<?xml version="1.0" encoding="UTF-8"?>
<svg id="Capa_1" data-name="Capa 1" xmlns="http://www.w3.org/2000/svg" viewBox="0 0 55 55">
  <path d="M17.06,26.9c-.02.74-.37,1.43-.89,1.96l-7.42,7.42c-1.54,1.54-1.91,3.97-.72,5.79,1.63,2.5,5.05,2.76,7.05.75l13.32-13.32c.14-.14.28-.29.39-.45.74-.97,1.05-2.17.91-3.33-.08-.65.11-1.3.57-1.76l2.28-2.28c.58-.58,1.59-.43,1.93.32.39.86.66,1.76.81,2.68.19,1.21.16,2.45-.08,3.65-.39,1.89-1.32,3.71-2.8,5.19l-13.08,13.08c-3.85,3.85-10.11,4.32-14.21.73-4.5-3.93-4.67-10.81-.51-14.96l9.78-9.78c1.17-1.17,3.17-.21,2.98,1.44l-.32,2.88Z"/>
  <path d="M37.94,26.67c.02-.74.37-1.43.89-1.96l7.42-7.42c1.54-1.54,1.91-3.97.72-5.8-1.63-2.5-5.05-2.75-7.05-.76l-13.33,13.33c-.14.14-.28.29-.39.45-.74.97-1.05,2.17-.91,3.33.08.65-.11,1.3-.57,1.76l-2.28,2.28c-.58.58-1.59.43-1.93-.32-.39-.86-.66-1.76-.81-2.68-.19-1.22-.16-2.46.1-3.67.38-1.9,1.31-3.71,2.78-5.17l13.33-13.33c4.15-4.15,11.04-3.98,14.96.53,3.57,4.11,3.09,10.37-.76,14.22l-9.52,9.52c-1.17,1.17-3.17.21-2.98-1.44l.32-2.88Z"/>
</svg>