<?xml version="1.0" encoding="UTF-8"?>
<svg id="Capa_1" data-name="Capa 1" xmlns="http://www.w3.org/2000/svg" viewBox="0 0 55 55">
  <defs>
    <style>
      .cls-1 {
        fill: #ff561d;
      }

      .cls-2 {
        fill: #fff;
      }
    </style>
  </defs>
  <path class="cls-1" d="M35.11,10.21c11.52,4.15,17.08,17.62,11.84,28.68-.02.05-.05.11-.08.16-3.15,6.59-9.48,10.96-16.52,11.77-2.67.31-5.45.1-8.19-.68-11.15-3.2-17.6-14.82-14.4-25.98.2-.7.44-1.39.7-2.05.34-.85,1.35-1.22,2.18-.82l12.58,6.16c2.1,1.03,4.52-.66,4.26-2.99l-1.49-13.74c-.1-.93.62-1.76,1.55-1.78,2.49-.05,5.05.36,7.56,1.26Z"/>
  <path class="cls-2" d="M22.29,5.48l1.74,16.02c.15,1.35-1.25,2.33-2.47,1.73l-14.59-7.15c-.84-.41-1.16-1.47-.67-2.27,3.12-5.15,8.3-8.65,14.1-9.74.92-.17,1.79.48,1.89,1.41Z"/>
</svg>