<?xml version="1.0" encoding="UTF-8"?>
<svg id="Capa_1" data-name="Capa 1" xmlns="http://www.w3.org/2000/svg" viewBox="0 0 55 55">
  <path d="M32.95,45.33c-.25,2.92-2.71,5.22-5.69,5.22s-5.44-2.3-5.69-5.22h11.38Z"/>
  <path d="M49.18,38.7c0,.86-.24,1.51-.62,2.01-.09.13-.2.25-.31.35-.05.06-.11.11-.17.16-.09.08-.18.15-.28.21-.7.48-1.56.71-2.26.81-.07.02-.14.02-.21.03-.41.05-.74.06-.95.06h-22.99c-3.49,0-6.98,0-10.47-.02-2.32,0-5.09-.77-5.09-3.61,0-2.51,1.6-2.68,4.19-6.13,2.5-3.35,1.54-4.87,2.92-11.57.96-4.65,2.77-9.37,6.2-12.78,1.93-1.92,4.49-3.35,7.23-3.7.4-.05.81-.08,1.2-.08h.01c2.5,0,4.89.99,6.87,2.55,4.32,3.42,6.54,8.76,7.62,14.01,1.39,6.7.42,8.22,2.93,11.57,2.59,3.45,4.18,3.62,4.18,6.13Z"/>
</svg>