<?xml version="1.0" encoding="UTF-8"?>
<svg id="Capa_1" data-name="Capa 1" xmlns="http://www.w3.org/2000/svg" viewBox="0 0 55 55">
  <path d="M35.09,31.71l8.15,11.82c1.09,1.58.7,3.73-.87,4.83l-1.51,1.05c-1.59,1.11-3.79.7-4.88-.91l-8.47-12.58-8.48,12.58c-1.09,1.61-3.28,2.02-4.88.91l-1.51-1.05c-1.57-1.1-1.96-3.25-.87-4.83l8.15-11.82-12.6-4.38c-1.87-.65-2.82-2.72-2.1-4.56l.52-1.33c.67-1.72,2.57-2.61,4.32-2.04l12.89,4.21v-14.9c0-1.92,1.56-3.48,3.48-3.48h2.14c1.92,0,3.48,1.56,3.48,3.48v14.9l12.89-4.21c1.75-.57,3.65.32,4.32,2.04l.52,1.33c.72,1.84-.23,3.91-2.1,4.56l-12.6,4.38Z"/>
</svg>