<?xml version="1.0" encoding="UTF-8"?>
<svg id="Capa_1" data-name="Capa 1" xmlns="http://www.w3.org/2000/svg" viewBox="0 0 55 55">
  <path d="M49.84,29.63c0,13.48-10.96,24.44-24.43,24.44S.97,43.11.97,29.63,11.93,5.2,25.41,5.2c2.49,0,4.9.37,7.16,1.07-.21.72-.23,1.5-.02,2.24.03.09.06.19.09.28l1.26,3.46-1.38,1.38c-2.18-.98-4.58-1.53-7.11-1.53-9.67,0-17.54,7.86-17.54,17.53s7.87,17.54,17.54,17.54,17.54-7.87,17.54-17.54c0-2.57-.57-5-1.58-7.2l1.31-1.31,3.55,1.23c.06.02.13.04.19.06.37.11.75.17,1.13.17.41,0,.81-.06,1.2-.18.71,2.28,1.09,4.72,1.09,7.23Z"/>
  <path d="M36.13,29.63c0,5.92-4.81,10.73-10.72,10.73s-10.73-4.81-10.73-10.73,4.81-10.72,10.73-10.72c.58,0,1.14.05,1.69.14l-5.86,5.86c-2.44,2.43-2.44,6.39,0,8.82,1.18,1.18,2.75,1.83,4.42,1.83s3.23-.65,4.41-1.83l5.91-5.91c.11.59.16,1.19.16,1.81Z"/>
  <path d="M53.88,12.96l-5.96,5.96c-.1.1-.23.15-.37.15-.06,0-.11-.01-.17-.03l-5.32-1.85c-.06-.01-.11-.02-.17-.02-.14,0-.27.05-.37.15l-13.94,13.94c-.53.53-1.23.8-1.93.8s-1.4-.27-1.94-.81c-.13-.13-.25-.28-.35-.43-.05-.07-.09-.15-.13-.23-.04-.08-.08-.16-.11-.24-.07-.17-.12-.34-.15-.51-.02-.08-.03-.17-.04-.26-.02-.17-.02-.35,0-.52.01-.09.02-.18.04-.26.03-.17.08-.34.15-.51.03-.08.07-.16.11-.24.04-.08.08-.16.13-.23.1-.15.22-.3.35-.43l14.01-14.01c.14-.14.19-.35.12-.54l-1.9-5.24c-.07-.19-.02-.41.12-.55l5.97-5.97c.1-.1.23-.15.36-.15.21,0,.41.12.49.34l2.85,7.86s.03.07.05.11c.02.03.05.07.08.09.05.05.12.09.19.12l7.63,2.65c.37.12.47.58.2.86Z"/>
</svg>