<?xml version="1.0" encoding="UTF-8"?>
<svg id="Capa_1" data-name="Capa 1" xmlns="http://www.w3.org/2000/svg" viewBox="0 0 55 55">
  <path d="M27.5,4.04C14.55,4.04,4.04,14.55,4.04,27.5s10.5,23.46,23.46,23.46,23.46-10.5,23.46-23.46S40.45,4.04,27.5,4.04ZM24.57,16.95c0-1.63,1.32-2.95,2.95-2.95s2.95,1.32,2.95,2.95c0,3-.22,6-.67,8.98l-.65,4.38c-.12.81-.82,1.42-1.64,1.42s-1.53-.61-1.65-1.42l-.65-4.47c-.42-2.9-.63-5.83-.63-8.76v-.11ZM27.48,41c-1.86,0-3.21-1.31-3.21-3.13s1.34-3.13,3.21-3.13,3.24,1.31,3.24,3.13-1.34,3.13-3.24,3.13Z"/>
</svg>