<?xml version="1.0" encoding="UTF-8"?>
<svg id="Capa_1" data-name="Capa 1" xmlns="http://www.w3.org/2000/svg" viewBox="0 0 55 55">
  <defs>
    <style>
      .cls-1 {
        fill: none;
        stroke: #000;
        stroke-linecap: round;
        stroke-linejoin: round;
        stroke-width: 4.5px;
      }
    </style>
  </defs>
  <path class="cls-1" d="M24.66,9.23l-15.67,26.44c-.85,1.44-1.38,3.1-1.48,4.88-.32,5.9,4.21,10.94,10.11,11.26,4.11.22,7.81-1.91,9.78-5.23l19.06-32c.6-1.01.97-2.18,1.04-3.44.22-4.16-2.97-7.72-7.13-7.94-2.9-.16-5.51,1.35-6.9,3.69l-14.49,24.46c-.41.68-.66,1.47-.7,2.32-.15,2.81,2,5.21,4.81,5.36,1.96.11,3.72-.91,4.66-2.49,0,0,.31-.56.75-1.81.27-.78,4.81-16.31,4.81-16.31"/>
</svg>