<?xml version="1.0" encoding="UTF-8"?>
<svg id="Capa_1" data-name="Capa 1" xmlns="http://www.w3.org/2000/svg" viewBox="0 0 55 55">
  <path d="M8.47,42.4c-2.16,0-3.91,1.75-3.91,3.91s1.75,3.91,3.91,3.91,3.91-1.75,3.91-3.91-1.75-3.91-3.91-3.91Z"/>
  <path d="M48.05,20.1c.11-.61.18-1.23.18-1.87,0-5.59-4.53-10.12-10.12-10.12-1.18,0-2.31.21-3.36.58-2.68-2.43-6.22-3.93-10.13-3.93-7.6,0-13.87,5.62-14.92,12.93-4.03,1.86-6.83,5.93-6.83,10.66,0,6.49,5.26,11.74,11.74,11.74.17,0,.33-.02.49-.02,1.44,4.85,5.93,8.39,11.25,8.39,3.13,0,5.97-1.23,8.07-3.23.85.15,1.71.24,2.6.24,8.33,0,15.09-6.75,15.09-15.09,0-3.98-1.55-7.59-4.07-10.29ZM27.15,39.67c-1.69,0-3-1.16-3-3s1.31-3,3-3,3,1.2,3,3-1.34,3-3,3ZM32.79,26.34c-2.47,1.38-3.39,2.19-3.39,4.76h-4.59c0-3.03-.39-4.62,1.98-6.46,1.87-1.45,3.84-1.94,3.84-3.95,0-1.16-.88-2.29-2.79-2.29-2.29,0-3.49,1.27-3.49,3.56h-6c0-4.66,3.25-8.4,9.84-8.4,4.9,0,8.43,2.75,8.43,6.84,0,2.82-1.38,4.55-3.84,5.93Z"/>
</svg>