<?xml version="1.0" encoding="UTF-8"?>
<svg id="Capa_1" data-name="Capa 1" xmlns="http://www.w3.org/2000/svg" viewBox="0 0 55 55">
  <defs>
    <style>
      .cls-1 {
        fill: #ff854a;
      }

      .cls-2 {
        fill: #1b1b19;
      }
    </style>
  </defs>
  <path class="cls-1" d="M48.58,27.69l-17.54-1.61c-.94-.09-1.64-.92-1.55-1.87.36-3.95,1.26-13.65,1.62-17.54.09-.93.95-1.59,1.88-1.43,10.09,1.77,17.46,10.62,17.35,20.87,0,.94-.82,1.67-1.75,1.58Z"/>
  <path class="cls-2" d="M45.99,32.8c-1.93,11.02-12.31,18.79-23.73,17.13-10.51-1.52-18.36-10.97-17.94-21.58.46-11.53,9.98-20.32,21.17-20.2.94,0,1.67.82,1.58,1.75l-1.5,16.29c-.15,1.63,1.05,3.08,2.69,3.23l16.29,1.5c.93.09,1.6.95,1.43,1.88Z"/>
</svg>