<?xml version="1.0" encoding="UTF-8"?>
<svg id="Capa_1" data-name="Capa 1" xmlns="http://www.w3.org/2000/svg" viewBox="0 0 55 55">
  <defs>
    <style>
      .cls-1 {
        fill: #ff561d;
      }

      .cls-2 {
        fill: #fff;
      }
    </style>
  </defs>
  <path class="cls-1" d="M49.87,31.55c-1.11,10.56-10.23,18.78-20.85,18.78-11.54,0-20.69-9.17-21.02-20.36-.03-.94.75-1.7,1.69-1.65l16.33.85c1.64.09,3.04-1.17,3.12-2.81l.85-16.33c.05-.94.89-1.63,1.82-1.51,11.09,1.49,19.26,11.56,18.05,23.03Z"/>
  <path class="cls-2" d="M26.85,6.36c-.2,3.91-.71,13.64-.92,17.59-.05.95-.86,1.67-1.8,1.62l-17.59-.92c-.94-.05-1.63-.89-1.51-1.82C6.4,12.68,14.96,4.98,25.2,4.68c.94-.03,1.7.75,1.65,1.68Z"/>
</svg>