<?xml version="1.0" encoding="UTF-8"?>
<svg id="Capa_1" data-name="Capa 1" xmlns="http://www.w3.org/2000/svg" viewBox="0 0 55 55">
  <defs>
    <style>
      .cls-1 {
        fill: #fff;
      }
    </style>
  </defs>
  <path d="M23.62,5.31L1.62,43.42c-1.72,2.98.43,6.71,3.88,6.71h44.01c3.44,0,5.6-3.73,3.88-6.71L31.38,5.31c-1.72-2.98-6.03-2.98-7.75,0Z"/>
  <path class="cls-1" d="M24.27,39.97c0-1.83,1.34-3.13,3.21-3.13s3.24,1.31,3.24,3.13-1.34,3.13-3.24,3.13-3.21-1.31-3.21-3.13ZM24.57,19.16v-.11c0-1.63,1.32-2.95,2.95-2.95h0c1.63,0,2.95,1.32,2.95,2.95h0c0,3-.22,6-.67,8.98l-.65,4.38c-.12.81-.82,1.42-1.64,1.42h0c-.83,0-1.53-.61-1.65-1.42l-.65-4.47c-.42-2.9-.63-5.83-.63-8.76Z"/>
</svg>