<?xml version="1.0" encoding="UTF-8"?>
<svg id="Capa_1" data-name="Capa 1" xmlns="http://www.w3.org/2000/svg" viewBox="0 0 55 55">
  <defs>
    <style>
      .cls-1 {
        fill: #ff561d;
      }

      .cls-2 {
        fill: #fff;
      }
    </style>
  </defs>
  <path class="cls-1" d="M50.35,30.97c-1,8.62-9.18,17.05-17.77,18.27-6.51.93-12.57-1.14-16.97-5.03-.82-.72-.8-2,0-2.74l12.24-11.32c1.05-.98,1.65-2.35,1.65-3.78V9.41c0-1.09.93-1.97,2.01-1.86,5.32.51,10.06,3,13.48,6.72,3.94,4.29,6.11,10.24,5.36,16.69Z"/>
  <path class="cls-2" d="M25.93,7.42v16.98c0,1.41-.59,2.76-1.63,3.72l-12.29,11.37c-.79.73-2.06.65-2.72-.2-2.74-3.54-4.36-7.99-4.36-12.82C4.93,15.54,13.26,6.57,23.9,5.55c1.09-.1,2.03.77,2.03,1.86Z"/>
</svg>